PathFileType	4	(X/Y/Z)	C:/Users/opensim2020/Desktop/walking_exp_matlab/subject03_walking15_straight_03.trc	
DataRate	CameraRate	NumFrames	NumMarkers	Units	OrigDataRate	OrigDataStartFrame	OrigNumFrames	
100.00	100.00	4	47	mm	100.00	1632	220	
Frame#	Time	LFHD			RFHD			LBHD			RBHD			C7			T10			CLAV			STRN			RBAK			LSHO			LUPA			LELB			LFRM			LWRA			LWRB			LFIN			RSHO			RUPA			RELB			RFRM			RWRA			RWRB			RFIN			LASI			RASI			LPSI			RPSI			LTHI			LKNE			LTIB			LANK			LHEE			LTOE			RTHI			RKNE			RTIB			RANK			RHEE			RTOE			*39			*40			*41			*42			*43			*44			*45			*46			
		X1	Y1	Z1	X2	Y2	Z2	X3	Y3	Z3	X4	Y4	Z4	X5	Y5	Z5	X6	Y6	Z6	X7	Y7	Z7	X8	Y8	Z8	X9	Y9	Z9	X10	Y10	Z10	X11	Y11	Z11	X12	Y12	Z12	X13	Y13	Z13	X14	Y14	Z14	X15	Y15	Z15	X16	Y16	Z16	X17	Y17	Z17	X18	Y18	Z18	X19	Y19	Z19	X20	Y20	Z20	X21	Y21	Z21	X22	Y22	Z22	X23	Y23	Z23	X24	Y24	Z24	X25	Y25	Z25	X26	Y26	Z26	X27	Y27	Z27	X28	Y28	Z28	X29	Y29	Z29	X30	Y30	Z30	X31	Y31	Z31	X32	Y32	Z32	X33	Y33	Z33	X34	Y34	Z34	X35	Y35	Z35	X36	Y36	Z36	X37	Y37	Z37	X38	Y38	Z38	X39	Y39	Z39	X40	Y40	Z40	X41	Y41	Z41	X42	Y42	Z42	X43	Y43	Z43	X44	Y44	Z44	X45	Y45	Z45	X46	Y46	Z46	X47	Y47	Z47	

56	0.550	1343.68567	-743.27100	1610.22144	1476.67786	-741.43439	1614.60925	1350.90063	-863.62012	1548.78149	1481.53345	-856.80969	1553.36829	1401.22168	-877.73639	1402.18982	1413.15332	-941.39435	1099.84595	1407.04871	-757.92719	1321.19336	1401.40625	-729.45587	1150.94202	1496.21021	-942.09137	1234.77100	1250.81311	-794.31866	1359.24438	1180.85852	-778.01996	1167.80066	1175.14624	-745.29205	1048.24707	1197.16699	-674.97369	942.72119	1250.11121	-616.40942	849.37714	1197.22913	-629.06885	838.39240	1222.15784	-580.14935	775.37573	1565.13916	-810.50427	1350.49756	1649.43567	-853.81348	1138.67773	1672.00415	-860.90112	1027.07141	1684.45081	-870.85211	890.60297	1658.49121	-856.76282	788.72052	1700.27844	-892.24860	793.35394	1695.00830	-885.17322	717.81250	1288.54626	-812.83093	920.22302	1522.23669	-785.03693	922.25397	1357.82898	-966.11377	956.17444	1504.34705	-948.45398	959.44592	1270.55334	-929.13226	630.74872	1318.40027	-965.87842	460.39944	1330.30701	-1063.18237	286.23126	1381.35913	-1119.38696	82.56496	1423.34814	-1160.72681	54.31210	1386.51416	-970.90192	34.38707	1585.96509	-762.14227	642.42383	1548.29163	-672.13965	488.57159	1553.38208	-673.92755	298.18491	1508.92834	-655.29480	81.72722	1455.58997	-694.48456	45.20403	1487.48474	-515.14142	59.26662	1396.75867	-832.00787	1658.90808																					 
57	0.560	1343.42261	-731.85834	1608.77307	1476.40442	-730.15094	1613.37109	1350.60522	-852.24481	1547.37744	1481.27539	-845.52704	1552.14526	1401.02234	-866.40521	1400.63818	1413.03735	-929.44678	1098.18884	1407.15247	-746.32190	1319.99011	1401.49109	-717.53583	1149.80383	1495.81213	-930.42603	1233.07178	1250.84851	-782.73181	1357.97144	1180.45459	-765.96558	1166.89258	1174.28735	-732.62195	1047.94812	1196.96619	-658.55713	945.04095	1250.80933	-596.17633	855.01611	1198.38940	-609.14050	842.38879	1223.99536	-557.77209	781.69995	1565.06580	-799.41217	1349.20007	1649.08386	-842.92035	1137.30249	1671.73499	-849.87140	1025.64856	1684.48767	-860.60895	889.26001	1658.97314	-846.90161	787.13409	1700.52930	-882.64172	792.20453	1695.66516	-875.90704	716.63409	1288.54626	-800.37567	918.68585	1522.35425	-772.48035	921.06104	1358.01660	-953.87646	954.07593	1504.47241	-936.10022	957.48523	1270.33594	-918.98108	629.95837	1317.95068	-958.19623	459.84695	1329.66589	-1058.52490	287.40884	1380.51233	-1118.58154	84.66887	1422.30664	-1160.37585	57.40399	1386.41931	-970.65863	34.17250	1586.10034	-751.79645	639.70026	1546.41492	-660.28082	486.98962	1551.65808	-655.44836	297.48254	1507.62805	-627.76416	81.92850	1453.57031	-665.67700	44.41603	1486.76526	-486.48749	62.88593	1396.21997	-820.59644	1657.63049																					 
58	0.570	1343.13416	-720.43365	1607.52710	1476.16833	-718.82581	1612.36511	1350.42664	-840.85706	1546.15723	1481.07715	-834.13232	1551.12024	1400.97656	-855.12775	1399.28577	1412.94934	-917.18304	1096.61108	1407.12683	-734.76685	1318.79749	1401.60046	-705.23663	1148.88745	1495.50403	-918.64636	1231.42126	1250.93835	-771.06238	1356.85876	1180.16016	-754.08435	1166.03760	1173.85376	-719.74231	1047.59961	1196.67444	-642.85638	947.61060	1251.24426	-576.81934	860.97931	1199.31567	-590.01758	846.76361	1225.46851	-536.24249	788.48108	1565.11157	-788.08850	1348.08496	1648.86658	-831.51563	1136.02991	1671.58777	-838.53125	1024.34900	1684.63196	-849.89099	888.05023	1659.44470	-836.65686	785.72528	1700.82581	-872.54376	791.17065	1696.23193	-866.40247	715.51849	1288.50562	-787.78076	917.24573	1522.47705	-759.80200	920.08173	1358.27917	-941.34723	952.08063	1504.40002	-924.48486	955.92743	1270.09119	-908.22656	629.17169	1317.31665	-949.93768	459.54181	1328.86279	-1053.32825	288.69492	1379.74146	-1116.80615	86.33426	1421.03589	-1159.75757	60.74765	1386.33484	-970.45093	34.05368	1586.44299	-741.34772	637.24127	1544.53809	-648.26715	485.60709	1549.71777	-638.27368	296.96152	1505.16284	-603.43927	82.20989	1450.65454	-639.98468	44.03384	1485.95313	-461.37042	66.26649	1397.02527	-810.28815	1657.32458																					 
59	0.580	1342.83215	-708.92206	1606.51208	1475.95996	-707.25842	1611.60413	1350.36438	-829.28424	1545.10718	1481.03186	-822.63208	1550.36438	1400.99500	-843.58008	1397.87634	1412.87000	-904.56836	1095.13599	1407.47192	-722.74207	1318.13354	1401.71143	-692.74554	1148.18396	1495.34058	-906.50531	1229.88904	1251.16064	-759.25714	1356.08582	1179.98755	-742.17236	1165.44177	1173.01135	-708.34692	1047.42334	1196.36353	-627.79810	950.35645	1251.56506	-558.17908	867.15875	1200.06689	-571.67285	851.34229	1226.59644	-515.49249	795.61255	1565.17505	-776.88342	1347.17993	1648.62964	-819.88440	1134.90369	1671.27368	-826.97552	1023.20648	1684.76501	-838.73871	886.94604	1660.05334	-825.78510	784.45673	1701.25110	-861.81738	790.15826	1696.89246	-856.16345	714.52661	1288.69434	-774.61920	915.95520	1522.58447	-746.75195	919.37811	1358.62244	-928.50623	950.25226	1504.63940	-911.53992	954.57092	1269.58496	-897.03558	628.70752	1316.49866	-940.79553	459.19461	1327.84070	-1047.46899	290.20419	1378.54419	-1115.29126	89.22051	1419.61926	-1158.74170	64.50769	1386.25195	-970.25073	33.85045	1586.66687	-730.01025	635.30475	1542.80310	-636.05750	484.53110	1547.64563	-622.58258	296.30234	1502.48621	-582.76630	82.39704	1447.46021	-617.95258	43.69659	1484.82349	-440.05573	69.02000	1395.66174	-797.74530	1655.67358																					 
